<svg preserveAspectRatio="none" width="100%" height="100%" overflow="visible" style="display: block;" viewBox="0 0 36 36" fill="none" xmlns="http://www.w3.org/2000/svg">
<g id="Frame">
<g clip-path="url(#clip0_471_502)">
<path id="Vector" d="M4.47565 4.47562C4.47565 3.23782 3.47562 2.23779 2.23782 2.23779C1.00003 2.23779 0 3.23782 0 4.47562V27.9728C0 31.0638 2.50357 33.5673 5.59456 33.5673H33.5674C34.8052 33.5673 35.8052 32.5673 35.8052 31.3295C35.8052 30.0917 34.8052 29.0917 33.5674 29.0917H5.59456C4.97916 29.0917 4.47565 28.5882 4.47565 27.9728V4.47562ZM32.91 10.5317C33.7842 9.65758 33.7842 8.23796 32.91 7.36381C32.0359 6.48966 30.6162 6.48966 29.7421 7.36381L22.3782 14.7346L18.3641 10.7205C17.49 9.8464 16.0704 9.8464 15.1962 10.7205L7.36384 18.5529C6.48969 19.4271 6.48969 20.8467 7.36384 21.7209C8.23799 22.595 9.65761 22.595 10.5318 21.7209L16.7837 15.4759L20.7978 19.49C21.6719 20.3642 23.0916 20.3642 23.9657 19.49L32.917 10.5387L32.91 10.5317Z" fill="var(--fill-0, white)"/>
</g>
</g>
<defs>
<clipPath id="clip0_471_502">
<path d="M0 0H35.8052V35.8052H0V0Z" fill="white"/>
</clipPath>
</defs>
</svg>
