<svg preserveAspectRatio="none" width="100%" height="100%" overflow="visible" style="display: block;" viewBox="0 0 207 207" fill="none" xmlns="http://www.w3.org/2000/svg">
<g id="Group">
<path id="Vector" d="M199.375 178.571V195.938C199.375 198.673 198.289 201.296 196.355 203.23C194.421 205.164 191.798 206.25 189.062 206.25H178.75C176.015 206.25 173.392 205.164 171.458 203.23C169.524 201.296 168.438 198.673 168.438 195.938V185.625" fill="var(--fill-0, #5A5B5D)"/>
<path id="Vector_2" d="M185.625 195.938C185.622 198.371 184.757 200.724 183.184 202.581C181.611 204.437 179.431 205.676 177.031 206.078C174.631 205.676 172.452 204.437 170.879 202.581C169.305 200.724 168.441 198.371 168.438 195.938V185.625L185.625 181.706V195.938Z" fill="var(--fill-0, #3F4042)"/>
<path id="Vector_3" d="M6.875 178.571V195.938C6.875 198.673 7.96149 201.296 9.89546 203.23C11.8294 205.164 14.4525 206.25 17.1875 206.25H27.5C30.235 206.25 32.8581 205.164 34.792 203.23C36.726 201.296 37.8125 198.673 37.8125 195.938V185.625" fill="var(--fill-0, #5A5B5D)"/>
<path id="Vector_4" d="M20.625 195.938C20.6281 198.371 21.4929 200.724 23.0661 202.581C24.6392 204.437 26.819 205.676 29.2188 206.078C31.6185 205.676 33.7983 204.437 35.3714 202.581C36.9446 200.724 37.8094 198.371 37.8125 195.938V185.625L20.625 181.706V195.938Z" fill="var(--fill-0, #3F4042)"/>
<path id="Vector_5" d="M179.743 107.102L169.17 64.8003C167.979 60.0373 165.23 55.8089 161.361 52.7874C157.491 49.766 152.722 48.1249 147.812 48.125H58.4375C48.3347 48.125 39.5312 55 37.0803 64.8003L26.5066 107.099" fill="var(--fill-0, #40873C)"/>
<path id="Vector_6" d="M179.743 107.099L169.17 64.7969C168.315 61.4193 166.668 58.2942 164.364 55.6806C162.039 54.8709 159.594 54.4584 157.132 54.4603H67.7566C57.6538 54.4603 48.8503 61.3353 46.3994 71.1356L37.4069 107.099H179.743Z" fill="var(--fill-0, #52A04F)"/>
<path id="Vector_7" d="M182.473 185.625C185.595 185.626 188.687 185.012 191.572 183.817C194.457 182.623 197.079 180.872 199.287 178.664C201.495 176.456 203.246 173.835 204.441 170.95C205.636 168.066 206.25 164.974 206.25 161.851V148.122C206.25 136.188 201.509 124.743 193.071 116.304C184.632 107.866 173.187 103.125 161.253 103.125H44.9969C33.063 103.125 21.6178 107.866 13.1793 116.304C4.74073 124.743 1.12871e-06 136.188 1.12871e-06 148.122V161.848C-0.000902174 164.971 0.613496 168.063 1.80809 170.948C3.00269 173.833 4.75407 176.455 6.96216 178.663C9.17026 180.871 11.7918 182.622 14.677 183.817C17.5622 185.012 20.6545 185.626 23.7772 185.625H182.473Z" fill="var(--fill-0, #52A04F)"/>
<path id="Vector_8" d="M181.376 107.876C175.128 104.752 168.239 103.125 161.253 103.125H44.9969C38.0113 103.125 31.1218 104.752 24.8738 107.876C23.3991 108.615 21.9931 109.447 20.625 110.33V137.5C20.625 143.882 23.1602 150.002 27.6727 154.515C32.1853 159.027 38.3057 161.563 44.6875 161.562H206.25V148.122C206.25 139.765 203.923 131.574 199.53 124.466C195.136 117.357 188.85 111.613 181.376 107.876Z" fill="var(--fill-0, #6DB569)"/>
<path id="Vector_9" d="M165.041 103.287L156.355 68.5438C155.878 66.639 154.778 64.9482 153.231 63.7399C151.683 62.5317 149.776 61.8753 147.813 61.875H58.4375C54.3984 61.875 50.875 64.625 49.8953 68.5438L41.2088 103.283" fill="var(--fill-0, #50BAE3)"/>
<path id="Vector_10" d="M54.9588 68.5884C52.9215 68.5912 50.9488 69.3034 49.3797 70.6028L41.2088 103.287H159.882L152.876 75.2606C152.399 73.3559 151.3 71.6651 149.752 70.4568C148.204 69.2485 146.297 68.5921 144.334 68.5919H54.9588V68.5884Z" fill="var(--fill-0, #6EC5E7)"/>
<path id="Vector_11" d="M161.562 185.625L157.19 168.128C156.475 165.271 154.825 162.734 152.503 160.922C150.182 159.109 147.321 158.125 144.375 158.125H61.875C55.8147 158.125 50.5312 162.25 49.06 168.128L44.6875 185.625" fill="var(--fill-0, #2D6628)"/>
<path id="Vector_12" d="M161.562 185.625L157.19 168.128C157.016 167.448 156.788 166.782 156.509 166.138C154.853 165.4 153.063 165.013 151.25 165H68.75C62.6897 165 57.4062 169.125 55.935 175.003L53.2812 185.625H161.562Z" fill="var(--fill-0, #40873C)"/>
<path id="Vector_13" d="M61.875 168.438H144.375V175.312H61.875V168.438Z" fill="var(--fill-0, #C4DDB4)"/>
<path id="Vector_14" d="M27.5 151.25C35.0939 151.25 41.25 145.094 41.25 137.5C41.25 129.906 35.0939 123.75 27.5 123.75C19.9061 123.75 13.75 129.906 13.75 137.5C13.75 145.094 19.9061 151.25 27.5 151.25Z" fill="var(--fill-0, #E7B541)"/>
<path id="Vector_15" d="M178.75 151.25C186.344 151.25 192.5 145.094 192.5 137.5C192.5 129.906 186.344 123.75 178.75 123.75C171.156 123.75 165 129.906 165 137.5C165 145.094 171.156 151.25 178.75 151.25Z" fill="var(--fill-0, #E7B541)"/>
<path id="Vector_16" d="M99.6875 61.875H106.562V75.625H99.6875V61.875Z" fill="var(--fill-0, #5A5B5D)"/>
<path id="Vector_17" d="M26.6406 106.563H10.3125C7.57746 106.563 4.95443 105.476 3.02046 103.542C1.08649 101.608 9.53674e-07 98.985 9.53674e-07 96.25C9.53674e-07 93.515 1.08649 90.8919 3.02046 88.958C4.95443 87.024 7.57746 85.9375 10.3125 85.9375H17.1875C19.9225 85.9375 22.5456 87.024 24.4795 88.958C26.4135 90.8919 27.5 93.515 27.5 96.25V103.125L26.6406 106.563Z" fill="var(--fill-0, #6DB569)"/>
<path id="Vector_18" d="M27.5 99.6875V96.25C27.5 93.515 26.4135 90.8919 24.4795 88.958C22.5456 87.024 19.9225 85.9375 17.1875 85.9375H10.3125C9.27781 85.9375 8.29813 86.1369 7.35625 86.4187C7.07438 87.3606 6.875 88.3403 6.875 89.375C6.875 92.11 7.96149 94.7331 9.89546 96.667C11.8294 98.601 14.4525 99.6875 17.1875 99.6875H27.5Z" fill="var(--fill-0, #8CC687)"/>
<path id="Vector_19" d="M179.609 106.563H195.938C198.673 106.563 201.296 105.476 203.23 103.542C205.164 101.608 206.25 98.985 206.25 96.25C206.25 93.515 205.164 90.8919 203.23 88.958C201.296 87.024 198.673 85.9375 195.938 85.9375H189.062C186.327 85.9375 183.704 87.024 181.77 88.958C179.836 90.8919 178.75 93.515 178.75 96.25V103.125L179.609 106.563Z" fill="var(--fill-0, #6DB569)"/>
<path id="Vector_20" d="M178.75 99.6875V96.25C178.75 93.515 179.836 90.8919 181.77 88.958C183.704 87.024 186.327 85.9375 189.062 85.9375H195.938C196.972 85.9375 197.952 86.1369 198.894 86.4187C199.176 87.3606 199.375 88.3403 199.375 89.375C199.375 92.11 198.289 94.7331 196.355 96.667C194.421 98.601 191.798 99.6875 189.062 99.6875H178.75Z" fill="var(--fill-0, #8CC687)"/>
<path id="Vector_21" d="M134.062 120.313C143.555 120.313 151.25 112.617 151.25 103.125C151.25 93.6326 143.555 85.9375 134.062 85.9375C124.57 85.9375 116.875 93.6326 116.875 103.125C116.875 112.617 124.57 120.313 134.062 120.313Z" fill="var(--fill-0, #969696)"/>
<path id="Vector_22" d="M154.688 103.125H147.812C147.812 95.5419 141.646 89.375 134.062 89.375C126.479 89.375 120.312 95.5419 120.312 103.125H113.438C113.438 91.7503 122.688 82.5 134.062 82.5C145.437 82.5 154.688 91.7503 154.688 103.125Z" fill="var(--fill-0, #5A5B5D)"/>
<path id="Vector_23" d="M103.125 144.372C116.466 144.373 129.529 140.553 140.767 133.363C152.005 126.174 160.949 115.915 166.54 103.802L166.695 103.469C164.89 103.249 163.075 103.125 161.253 103.125H44.9969C43.1716 103.125 41.3566 103.249 39.5553 103.469L39.71 103.802C45.301 115.915 54.2448 126.174 65.483 133.363C76.7213 140.553 89.7838 144.373 103.125 144.372Z" fill="var(--fill-0, #52A04F)"/>
<path id="Vector_24" d="M92.8125 72.1875H113.438V79.0625H92.8125V72.1875Z" fill="var(--fill-0, #3F4042)"/>
<path id="Vector_25" d="M206.25 34.375C206.25 15.3897 190.86 0 171.875 0C152.89 0 137.5 15.3897 137.5 34.375C137.5 53.3603 171.875 103.125 171.875 103.125C171.875 103.125 206.25 53.3603 206.25 34.375Z" fill="var(--fill-0, #DC4A4A)"/>
<path id="Vector_26" d="M171.875 1.15852e-07C164.429 -0.000612745 157.187 2.43032 151.25 6.92312V44.6875C151.25 50.1576 153.423 55.4036 157.291 59.2716C161.159 63.1395 166.405 65.3125 171.875 65.3125H194.927C201.173 53.5012 206.25 41.6659 206.25 34.375C206.25 15.3897 190.86 1.15852e-07 171.875 1.15852e-07Z" fill="var(--fill-0, #E56A6A)"/>
<path id="Vector_27" d="M171.875 37.8125L175.312 55L189.062 20.625L154.688 34.375L171.875 37.8125Z" fill="var(--fill-0, white)"/>
</g>
</svg>
