<svg preserveAspectRatio="none" width="100%" height="100%" overflow="visible" style="display: block;" viewBox="0 0 206 208" fill="none" xmlns="http://www.w3.org/2000/svg">
<g id="Group">
<path id="Vector" d="M162.904 136.565V181.18C162.904 195.464 126.426 207.049 81.4679 207.049C36.4812 207.049 0.00323564 195.467 0.00323564 181.176V136.565C0.00323564 122.252 36.4812 110.666 81.4679 110.666C126.426 110.666 162.904 122.249 162.904 136.565Z" fill="var(--fill-0, #4F5D99)"/>
<path id="Vector_2" d="M162.904 136.565C162.904 150.849 126.426 162.434 81.4679 162.434C36.4812 162.434 0.00323564 150.852 0.00323564 136.562C0.00323564 122.249 36.4812 110.663 81.4679 110.663C126.426 110.663 162.9 122.246 162.9 136.562L162.904 136.565Z" fill="var(--fill-0, #3D4A75)"/>
<path id="Vector_3" d="M0 136.565C0 150.849 36.4812 162.434 81.4647 162.434C126.426 162.434 162.904 150.852 162.904 136.562V181.18C162.904 195.467 126.426 207.052 81.4679 207.052C36.4812 207.052 0.00323583 195.47 0.00323583 181.18L0 136.565Z" fill="var(--fill-0, #4F5D99)"/>
<path id="Vector_4" d="M51.6418 183.962C51.6418 186.013 49.8397 187.592 47.7918 187.369C29.9977 185.347 18.2212 181.199 13.6076 178.09C13.213 177.818 12.8915 177.452 12.6715 177.026C12.4514 176.6 12.3396 176.127 12.3459 175.647C12.3429 175.171 12.454 174.701 12.67 174.276C12.886 173.852 13.2005 173.485 13.5873 173.207C13.9741 172.929 14.4218 172.747 14.8931 172.678C15.3644 172.608 15.8455 172.652 16.2962 172.807C25.8985 176.188 37.0797 179.297 48.5294 180.533C50.2829 180.727 51.6418 182.186 51.6418 183.962Z" fill="var(--fill-0, #E9E9FF)"/>
<path id="Vector_5" d="M152.842 173.415C152.842 176.489 150.341 178.964 147.267 178.964C144.19 178.964 141.689 176.492 141.689 173.415C141.689 170.342 144.19 167.837 147.267 167.837C150.341 167.837 152.842 170.338 152.842 173.415Z" fill="var(--fill-0, #7BD681)"/>
<path id="Vector_6" d="M114.034 181.843C114.034 184.916 111.534 187.391 108.46 187.391C105.383 187.391 102.882 184.92 102.882 181.843C102.882 178.769 105.383 176.265 108.46 176.265C111.534 176.265 114.034 178.766 114.034 181.843Z" fill="var(--fill-0, #ED524E)"/>
<path id="Vector_7" d="M162.904 81.2318V125.846C162.904 140.13 126.426 151.716 81.4679 151.716C36.4812 151.716 0.00323564 140.134 0.00323564 125.843V81.2285C0.00323564 66.9156 36.4812 55.33 81.4679 55.33C126.426 55.33 162.904 66.9156 162.904 81.2318Z" fill="var(--fill-0, #4F5D99)"/>
<path id="Vector_8" d="M162.904 81.2318C162.904 95.5156 126.426 107.101 81.4679 107.101C36.4812 107.101 0.00323564 95.5188 0.00323564 81.2318C0.00323564 66.9156 36.4812 55.33 81.4679 55.33C126.426 55.33 162.904 66.9156 162.904 81.2318Z" fill="var(--fill-0, #3D4A75)"/>
<path id="Vector_9" d="M0 81.2318C0 95.5156 36.4812 107.101 81.4647 107.101C126.426 107.101 162.904 95.5188 162.904 81.2318V125.846C162.904 140.134 126.426 151.719 81.4679 151.719C36.4812 151.719 0.00323583 140.137 0.00323583 125.85L0 81.2318Z" fill="var(--fill-0, #4F5D99)"/>
<path id="Vector_10" d="M51.6418 128.632C51.6418 130.68 49.8397 132.259 47.7918 132.039C29.9977 130.014 18.2212 125.866 13.6076 122.754C13.2135 122.481 12.8923 122.117 12.6722 121.691C12.4522 121.266 12.3401 120.793 12.3459 120.314C12.3429 119.838 12.454 119.368 12.67 118.943C12.886 118.518 13.2005 118.152 13.5873 117.873C13.9741 117.595 14.4218 117.414 14.8931 117.344C15.3644 117.275 15.8455 117.319 16.2962 117.474C25.8985 120.858 37.0797 123.967 48.5294 125.199C50.2829 125.397 51.6418 126.856 51.6418 128.632Z" fill="var(--fill-0, #E9E9FF)"/>
<path id="Vector_11" d="M152.842 118.082C152.842 121.159 150.341 123.63 147.267 123.63C144.19 123.63 141.689 121.159 141.689 118.082C141.689 115.008 144.19 112.507 147.267 112.507C150.341 112.507 152.842 115.008 152.842 118.082Z" fill="var(--fill-0, #7BD681)"/>
<path id="Vector_12" d="M133.737 123.643C133.737 126.72 131.236 129.192 128.163 129.192C125.086 129.192 122.585 126.72 122.585 123.643C122.585 120.57 125.086 118.069 128.163 118.069C131.236 118.069 133.737 120.57 133.737 123.643Z" fill="var(--fill-0, #FDC72E)"/>
<path id="Vector_13" d="M114.034 126.51C114.034 129.586 111.534 132.058 108.46 132.058C105.383 132.058 102.882 129.586 102.882 126.51C102.882 123.436 105.383 120.932 108.46 120.932C111.534 120.932 114.034 123.433 114.034 126.51Z" fill="var(--fill-0, #ED524E)"/>
<path id="Vector_14" d="M162.904 25.8985V70.5132C162.904 84.8003 126.426 96.3827 81.4679 96.3827C36.4812 96.3827 0.00323564 84.8003 0.00323564 70.5132V25.8985C0.00323564 11.5824 36.4812 0 81.4679 0C126.426 0 162.904 11.5824 162.904 25.8985Z" fill="var(--fill-0, #4F5D99)"/>
<path id="Vector_15" d="M162.904 25.8985C162.904 40.1856 126.426 51.7679 81.4647 51.7679C36.4779 51.7679 2.08616e-07 40.1856 2.08616e-07 25.8985C2.08616e-07 11.5824 36.4779 1.78814e-07 81.4647 1.78814e-07C126.422 1.78814e-07 162.897 11.5824 162.897 25.8985H162.904Z" fill="var(--fill-0, #3D4A75)"/>
<path id="Vector_16" d="M0 25.8985C0 40.1856 36.4844 51.7679 81.4647 51.7679C126.426 51.7679 162.904 40.1856 162.904 25.8985V70.5132C162.904 84.8035 126.426 96.3859 81.4679 96.3859C36.4812 96.3859 0.00323583 84.8035 0.00323583 70.5165L0 25.8985Z" fill="var(--fill-0, #4F5D99)"/>
<path id="Vector_17" d="M51.6418 73.2988C51.6418 75.3468 49.8397 76.9256 47.7918 76.7056C29.9977 74.6803 18.2212 70.5359 13.6076 67.4235C13.213 67.1512 12.8915 66.7859 12.6715 66.3599C12.4514 65.9339 12.3396 65.4603 12.3459 64.9809C12.3429 64.5045 12.454 64.0343 12.67 63.6097C12.886 63.1851 13.2005 62.8183 13.5873 62.5402C13.9741 62.2621 14.4218 62.0806 14.8931 62.011C15.3644 61.9415 15.8455 61.9858 16.2962 62.1403C25.8985 65.5244 37.0797 68.6335 48.5294 69.8662C50.2829 70.0635 51.6418 71.5226 51.6418 73.2956V73.2988Z" fill="var(--fill-0, #E9E9FF)"/>
<path id="Vector_18" d="M152.842 62.7485C152.842 65.8252 150.341 68.297 147.267 68.297C144.19 68.297 141.689 65.8252 141.689 62.7485C141.689 59.675 144.19 57.1741 147.267 57.1741C150.341 57.1741 152.842 59.675 152.842 62.7485Z" fill="var(--fill-0, #7BD681)"/>
<path id="Vector_19" d="M133.737 68.3132C133.737 71.3868 131.236 73.8618 128.163 73.8618C125.086 73.8618 122.585 71.39 122.585 68.3132C122.585 65.2397 125.086 62.7356 128.163 62.7356C131.236 62.7356 133.737 65.2365 133.737 68.3132Z" fill="var(--fill-0, #FDC72E)"/>
<path id="Vector_20" d="M114.034 71.1797C114.034 74.2532 111.534 76.725 108.46 76.725C105.383 76.725 102.882 74.2532 102.882 71.1765C102.882 68.1029 105.383 65.6021 108.46 65.6021C111.534 65.6021 114.034 68.1062 114.034 71.1797Z" fill="var(--fill-0, #ED524E)"/>
<g id="Group_2" opacity="0.16">
<path id="Vector_21" d="M119.428 204.086C108.091 205.998 95.2082 207.065 81.4776 207.065C75.1462 207.065 68.9991 206.845 63.1109 206.402L14.7432 11.0582C27.1829 5.39 46.5462 1.41706 68.9247 0.310589L119.428 204.086ZM148.176 196.023C143.945 197.939 138.936 199.666 133.304 201.138L83.5029 0.0161766C89.1 0.0517648 94.545 0.275 99.8088 0.676177L148.176 196.023Z" fill="var(--fill-0, white)"/>
</g>
<path id="Vector_22" d="M203.869 158.219L193.176 155.394C192.618 153.601 191.895 151.864 191.015 150.205L196.606 140.667C196.778 140.366 196.846 140.016 196.799 139.672C196.753 139.328 196.593 139.009 196.347 138.765L189.058 131.473C188.811 131.219 188.487 131.056 188.137 131.009C187.786 130.962 187.43 131.034 187.126 131.214L177.585 136.779C176.458 136.183 175.293 135.662 174.098 135.219C173.522 134.989 172.975 134.818 172.399 134.614L169.604 123.951C169.512 123.614 169.314 123.317 169.038 123.104C168.763 122.891 168.425 122.774 168.077 122.77H157.73C157.381 122.769 157.041 122.885 156.765 123.099C156.488 123.313 156.291 123.612 156.203 123.951L155.857 125.248L155.394 127.037L153.408 134.614C151.593 135.19 149.862 135.911 148.193 136.775L138.681 131.214C138.377 131.034 138.021 130.962 137.67 131.009C137.32 131.056 136.996 131.219 136.749 131.473L132.052 136.17L129.46 138.765C128.939 139.283 128.852 140.059 129.201 140.667L134.76 150.205C133.884 151.873 133.17 153.62 132.628 155.424L121.938 158.219C121.599 158.306 121.299 158.503 121.085 158.78C120.87 159.056 120.754 159.396 120.754 159.746V170.063C120.75 170.414 120.865 170.756 121.08 171.033C121.295 171.311 121.597 171.507 121.938 171.59L132.628 174.415C133.178 176.201 133.896 177.961 134.789 179.601L129.198 189.142C129.025 189.443 128.957 189.793 129.004 190.137C129.05 190.481 129.21 190.8 129.457 191.044L136.749 198.362C137.267 198.854 138.047 198.967 138.681 198.592L148.193 193.031C149.858 193.916 151.605 194.639 153.408 195.192L156.203 205.884C156.375 206.577 157.012 207.065 157.73 207.065H168.077C168.798 207.065 169.403 206.577 169.604 205.884L172.399 195.192C174.188 194.626 175.924 193.903 177.585 193.031L177.618 193.063L178.941 193.839L184.907 197.298L187.126 198.592C187.298 198.709 187.501 198.767 187.702 198.825C187.948 198.851 188.197 198.822 188.431 198.743C188.665 198.663 188.879 198.533 189.058 198.362L196.347 191.044C196.594 190.8 196.753 190.481 196.8 190.137C196.847 189.793 196.779 189.443 196.606 189.142L191.015 179.601C191.895 177.943 192.618 176.207 193.176 174.415L203.869 171.59C204.209 171.506 204.511 171.31 204.725 171.033C204.94 170.755 205.054 170.414 205.05 170.063V159.743C205.049 159.394 204.933 159.055 204.72 158.779C204.506 158.503 204.207 158.306 203.869 158.219ZM162.887 185.02C157.597 184.953 152.545 182.804 148.828 179.039C145.11 175.274 143.025 170.196 143.025 164.905C143.025 159.613 145.11 154.535 148.828 150.77C152.545 147.005 157.597 144.856 162.887 144.789C168.178 144.856 173.229 147.005 176.947 150.77C180.665 154.535 182.749 159.613 182.749 164.905C182.749 170.196 180.665 175.274 176.947 179.039C173.229 182.804 168.178 184.953 162.887 185.02Z" fill="var(--fill-0, #70C1F9)"/>
<path id="Vector_23" d="M162.887 185.02C173.998 185.02 183.004 176.013 183.004 164.903C183.004 153.793 173.998 144.786 162.887 144.786C151.777 144.786 142.77 153.793 142.77 164.903C142.77 176.013 151.777 185.02 162.887 185.02Z" fill="var(--fill-0, #4F5D99)"/>
<path id="Vector_24" d="M162.887 181.144C171.857 181.144 179.129 173.873 179.129 164.903C179.129 155.933 171.857 148.662 162.887 148.662C153.918 148.662 146.646 155.933 146.646 164.903C146.646 173.873 153.918 181.144 162.887 181.144Z" fill="var(--fill-0, #E9E9FF)"/>
</g>
</svg>
