<svg preserveAspectRatio="none" width="100%" height="100%" overflow="visible" style="display: block;" viewBox="0 0 191 213" fill="none" xmlns="http://www.w3.org/2000/svg">
<g id="Group">
<path id="Vector" d="M190.667 29.3333V172.333C190.667 177.196 188.735 181.859 185.297 185.297C181.859 188.735 177.196 190.667 172.333 190.667H18.3333C13.471 190.667 8.80788 188.735 5.36971 185.297C1.93154 181.859 2.98023e-07 177.196 2.98023e-07 172.333V29.3333L3.66667 25.6667H187L190.667 29.3333Z" fill="var(--fill-0, #2A2A49)"/>
<path id="Vector_2" d="M190.667 18.3333V29.3333H0V18.3333C0 13.471 1.93154 8.80788 5.36971 5.36971C8.80788 1.93154 13.471 0 18.3333 0H172.333C174.741 0 177.125 0.474206 179.349 1.39554C181.574 2.31688 183.595 3.6673 185.297 5.36971C186.999 7.07212 188.35 9.09317 189.271 11.3175C190.192 13.5418 190.667 15.9258 190.667 18.3333Z" fill="var(--fill-0, #444477)"/>
<path id="Vector_3" d="M80.1976 168.667H73.3336V205.333C73.3278 207.277 72.5533 209.138 71.1793 210.512C69.8053 211.886 67.9434 212.661 66.0003 212.667H44.0003C42.0571 212.661 40.1952 211.886 38.8212 210.512C37.4472 209.138 36.6727 207.277 36.6669 205.333V168.667H29.8029C28.2802 168.644 26.7962 168.184 25.5287 167.339C24.2612 166.495 23.264 165.303 22.6565 163.907C22.049 162.51 21.857 160.968 22.1035 159.466C22.35 157.963 23.0245 156.563 24.0463 155.434L49.2436 127.274C49.9618 126.454 50.847 125.796 51.8398 125.346C52.8326 124.896 53.9101 124.663 55.0003 124.663C56.0904 124.663 57.1679 124.896 58.1607 125.346C59.1535 125.796 60.0387 126.454 60.7569 127.274L85.9543 155.434C86.976 156.563 87.6506 157.963 87.8971 159.466C88.1436 160.968 87.9516 162.51 87.3441 163.907C86.7366 165.303 85.7393 166.495 84.4718 167.339C83.2043 168.184 81.7203 168.644 80.1976 168.667Z" fill="var(--fill-0, #25E572)"/>
<path id="Vector_4" d="M110.47 168.667H117.334V132C117.339 130.057 118.114 128.195 119.488 126.821C120.862 125.447 122.724 124.673 124.667 124.667H146.667C148.61 124.673 150.472 125.447 151.846 126.821C153.22 128.195 153.995 130.057 154 132V168.667H160.861C162.383 168.689 163.867 169.15 165.135 169.994C166.402 170.838 167.4 172.03 168.007 173.427C168.615 174.823 168.807 176.365 168.56 177.868C168.314 179.371 167.639 180.771 166.617 181.9L141.42 210.06C140.702 210.88 139.817 211.537 138.824 211.987C137.831 212.437 136.753 212.67 135.663 212.67C134.573 212.67 133.496 212.437 132.503 211.987C131.51 211.537 130.625 210.88 129.907 210.06L104.709 181.9C103.687 180.77 103.013 179.37 102.766 177.867C102.52 176.364 102.712 174.821 103.32 173.425C103.928 172.028 104.926 170.837 106.194 169.993C107.462 169.149 108.947 168.688 110.47 168.667Z" fill="var(--fill-0, #FF4D4D)"/>
<g id="Group_2">
<path id="Vector_5" d="M139.333 91.6667H132V62.3333H139.333C140.305 62.3333 141.238 61.947 141.926 61.2594C142.613 60.5718 143 59.6391 143 58.6667C143 57.6942 142.613 56.7616 141.926 56.0739C141.238 55.3863 140.305 55 139.333 55H117.333C116.361 55 115.428 55.3863 114.74 56.0739C114.053 56.7616 113.666 57.6942 113.666 58.6667C113.666 59.6391 114.053 60.5718 114.74 61.2594C115.428 61.947 116.361 62.3333 117.333 62.3333H124.666V91.6667H117.333C116.361 91.6667 115.428 92.053 114.74 92.7406C114.053 93.4282 113.666 94.3609 113.666 95.3333C113.666 96.3058 114.053 97.2384 114.74 97.9261C115.428 98.6137 116.361 99 117.333 99H139.333C140.305 99 141.238 98.6137 141.926 97.9261C142.613 97.2384 143 96.3058 143 95.3333C143 94.3609 142.613 93.4282 141.926 92.7406C141.238 92.053 140.305 91.6667 139.333 91.6667ZM64.1663 55C60.7627 55 57.4985 56.3521 55.0918 58.7588C52.6851 61.1655 51.333 64.4297 51.333 67.8333V95.3333C51.333 96.3058 51.7193 97.2384 52.4069 97.9261C53.0946 98.6137 54.0272 99 54.9997 99C55.9721 99 56.9048 98.6137 57.5924 97.9261C58.28 97.2384 58.6663 96.3058 58.6663 95.3333V80.6667H69.6663V95.3333C69.6663 96.3058 70.0526 97.2384 70.7403 97.9261C71.4279 98.6137 72.3605 99 73.333 99C74.3055 99 75.2381 98.6137 75.9257 97.9261C76.6134 97.2384 76.9997 96.3058 76.9997 95.3333V67.8333C76.9997 64.4297 75.6476 61.1655 73.2409 58.7588C70.8342 56.3521 67.57 55 64.1663 55ZM58.6663 73.3333V67.8333C58.6663 66.3746 59.2458 64.9757 60.2773 63.9442C61.3087 62.9128 62.7077 62.3333 64.1663 62.3333C65.625 62.3333 67.024 62.9128 68.0554 63.9442C69.0869 64.9757 69.6663 66.3746 69.6663 67.8333V73.3333H58.6663ZM97.1663 55H87.9997C87.0272 55 86.0946 55.3863 85.4069 56.0739C84.7193 56.7616 84.333 57.6942 84.333 58.6667V95.3333C84.333 96.3058 84.7193 97.2384 85.4069 97.9261C86.0946 98.6137 87.0272 99 87.9997 99C88.9721 99 89.9048 98.6137 90.5924 97.9261C91.28 97.2384 91.6663 96.3058 91.6663 95.3333V80.6667H97.1663C100.57 80.6667 103.834 79.3146 106.241 76.9079C108.648 74.5012 110 71.2369 110 67.8333C110 64.4297 108.648 61.1655 106.241 58.7588C103.834 56.3521 100.57 55 97.1663 55ZM97.1663 73.3333H91.6663V62.3333H97.1663C98.625 62.3333 100.024 62.9128 101.055 63.9442C102.087 64.9757 102.666 66.3746 102.666 67.8333C102.666 69.292 102.087 70.691 101.055 71.7224C100.024 72.7539 98.625 73.3333 97.1663 73.3333Z" fill="var(--fill-0, white)"/>
</g>
<path id="Vector_6" d="M22.0003 18.3333H18.3337C17.3612 18.3333 16.4286 17.947 15.7409 17.2594C15.0533 16.5718 14.667 15.6391 14.667 14.6667C14.667 13.6942 15.0533 12.7616 15.7409 12.0739C16.4286 11.3863 17.3612 11 18.3337 11H22.0003C22.9728 11 23.9054 11.3863 24.5931 12.0739C25.2807 12.7616 25.667 13.6942 25.667 14.6667C25.667 15.6391 25.2807 16.5718 24.5931 17.2594C23.9054 17.947 22.9728 18.3333 22.0003 18.3333Z" fill="var(--fill-0, #FF4D4D)"/>
<path id="Vector_7" d="M40.3333 18.3333H36.6667C35.6942 18.3333 34.7616 17.947 34.0739 17.2594C33.3863 16.5718 33 15.6391 33 14.6667C33 13.6942 33.3863 12.7616 34.0739 12.0739C34.7616 11.3863 35.6942 11 36.6667 11H40.3333C41.3058 11 42.2384 11.3863 42.9261 12.0739C43.6137 12.7616 44 13.6942 44 14.6667C44 15.6391 43.6137 16.5718 42.9261 17.2594C42.2384 17.947 41.3058 18.3333 40.3333 18.3333Z" fill="var(--fill-0, #F7BB26)"/>
<path id="Vector_8" d="M58.6663 18.3333H54.9997C54.0272 18.3333 53.0946 17.947 52.4069 17.2594C51.7193 16.5718 51.333 15.6391 51.333 14.6667C51.333 13.6942 51.7193 12.7616 52.4069 12.0739C53.0946 11.3863 54.0272 11 54.9997 11H58.6663C59.6388 11 60.5714 11.3863 61.2591 12.0739C61.9467 12.7616 62.333 13.6942 62.333 14.6667C62.333 15.6391 61.9467 16.5718 61.2591 17.2594C60.5714 17.947 59.6388 18.3333 58.6663 18.3333Z" fill="var(--fill-0, #25E572)"/>
<path id="Vector_9" d="M154 18.3333H95.3337C94.3612 18.3333 93.4286 17.947 92.7409 17.2594C92.0533 16.5718 91.667 15.6391 91.667 14.6667C91.667 13.6942 92.0533 12.7616 92.7409 12.0739C93.4286 11.3863 94.3612 11 95.3337 11H154C154.973 11 155.905 11.3863 156.593 12.0739C157.281 12.7616 157.667 13.6942 157.667 14.6667C157.667 15.6391 157.281 16.5718 156.593 17.2594C155.905 17.947 154.973 18.3333 154 18.3333Z" fill="var(--fill-0, #2A2A49)"/>
</g>
</svg>
