<svg preserveAspectRatio="none" width="100%" height="100%" overflow="visible" style="display: block;" viewBox="0 0 30 30" fill="none" xmlns="http://www.w3.org/2000/svg">
<g id="Frame">
<path d="M30 30H0V0H30V30Z" stroke="var(--stroke-0, #E5E7EB)"/>
<path id="Vector" d="M1.875 1.875C2.91211 1.875 3.75 2.71289 3.75 3.75V23.4375C3.75 23.9531 4.17187 24.375 4.6875 24.375H28.125C29.1621 24.375 30 25.2129 30 26.25C30 27.2871 29.1621 28.125 28.125 28.125H4.6875C2.09766 28.125 0 26.0273 0 23.4375V3.75C0 2.71289 0.837891 1.875 1.875 1.875ZM7.5 7.5C7.5 6.46289 8.33789 5.625 9.375 5.625H20.625C21.6621 5.625 22.5 6.46289 22.5 7.5C22.5 8.53711 21.6621 9.375 20.625 9.375H9.375C8.33789 9.375 7.5 8.53711 7.5 7.5ZM9.375 11.25H16.875C17.9121 11.25 18.75 12.0879 18.75 13.125C18.75 14.1621 17.9121 15 16.875 15H9.375C8.33789 15 7.5 14.1621 7.5 13.125C7.5 12.0879 8.33789 11.25 9.375 11.25ZM9.375 16.875H24.375C25.4121 16.875 26.25 17.7129 26.25 18.75C26.25 19.7871 25.4121 20.625 24.375 20.625H9.375C8.33789 20.625 7.5 19.7871 7.5 18.75C7.5 17.7129 8.33789 16.875 9.375 16.875Z" fill="var(--fill-0, white)"/>
</g>
</svg>
