<svg preserveAspectRatio="none" width="100%" height="100%" overflow="visible" style="display: block;" viewBox="0 0 64 64" fill="none" xmlns="http://www.w3.org/2000/svg">
<g id="Frame 3">
<circle id="Ellipse 2" cx="32" cy="32" r="31" fill="var(--fill-0, black)" stroke="var(--stroke-0, white)" stroke-width="2"/>
<g id="ArrowUpRight">
<path id="Vector" d="M45.5 20V39.5C45.5 39.8978 45.342 40.2794 45.0607 40.5607C44.7794 40.842 44.3978 41 44 41C43.6022 41 43.2206 40.842 42.9393 40.5607C42.658 40.2794 42.5 39.8978 42.5 39.5V23.6206L21.0613 45.0613C20.7798 45.3427 20.398 45.5008 20 45.5008C19.602 45.5008 19.2202 45.3427 18.9388 45.0613C18.6573 44.7798 18.4992 44.398 18.4992 44C18.4992 43.602 18.6573 43.2202 18.9388 42.9387L40.3794 21.5H24.5C24.1022 21.5 23.7206 21.342 23.4393 21.0607C23.158 20.7794 23 20.3978 23 20C23 19.6022 23.158 19.2206 23.4393 18.9393C23.7206 18.658 24.1022 18.5 24.5 18.5H44C44.3978 18.5 44.7794 18.658 45.0607 18.9393C45.342 19.2206 45.5 19.6022 45.5 20Z" fill="var(--fill-0, white)"/>
</g>
</g>
</svg>
