<svg preserveAspectRatio="none" width="100%" height="100%" overflow="visible" style="display: block;" viewBox="0 0 20 22" fill="none" xmlns="http://www.w3.org/2000/svg">
<g id="Group">
<path id="Vector" d="M18.8066 18.6906C18.0842 16.8834 15.869 13.6146 13.4546 10.3554C15.7322 7.74421 17.7986 5.36581 18.3362 4.69381C19.421 3.33781 19.3466 2.75701 17.3138 2.74741C15.857 2.74021 15.353 2.56501 14.3882 3.57541C13.8218 4.16821 12.6026 5.62021 11.201 7.38901C8.95941 4.49941 6.88341 2.00821 6.00981 1.09141C4.76181 -0.216591 4.10901 0.0114086 2.22261 0.0210086C-0.407794 0.0354086 -0.506194 0.786609 0.900206 2.54101C1.68261 3.52021 4.96821 7.29301 8.33301 11.1474C6.59301 13.521 5.03781 15.8442 4.51221 17.1618C3.81621 18.9042 5.36421 19.665 6.68181 18.129C7.40661 17.2818 8.88261 15.5922 10.5506 13.6818C12.8882 16.3578 14.9954 18.7722 15.9986 19.9434C17.7026 21.9306 19.709 20.9466 18.8066 18.6906Z" fill="var(--fill-0, #ED1C24)"/>
</g>
</svg>
