<svg preserveAspectRatio="none" width="100%" height="100%" overflow="visible" style="display: block;" viewBox="0 0 23 19" fill="none" xmlns="http://www.w3.org/2000/svg">
<g id="Group">
<path id="Vector" d="M7.17669 13.1311C9.98589 8.47097 17.5394 3.08225 21.7113 0.126649C21.8249 0.0462592 21.9601 0.00213158 22.0992 7.52833e-05C22.2383 -0.00198102 22.3747 0.0381302 22.4906 0.115129C22.58 0.174274 22.6544 0.253432 22.7079 0.346328C22.7614 0.439224 22.7925 0.543305 22.7988 0.650322C22.8051 0.757338 22.7864 0.864349 22.7441 0.962871C22.7019 1.06139 22.6373 1.14872 22.5554 1.21793C17.5507 5.44577 11.5946 10.5038 9.79605 16.0756C9.76432 16.1751 9.71074 16.2663 9.63923 16.3424C9.56772 16.4185 9.4801 16.4777 9.38277 16.5155C8.47029 16.8707 7.07804 17.5864 6.25436 18.0847C6.17278 18.1342 6.08182 18.1664 5.9872 18.1791C5.89259 18.1918 5.79636 18.1848 5.70458 18.1586C5.6128 18.1323 5.52744 18.0873 5.45387 18.0265C5.3803 17.9657 5.32011 17.8903 5.27708 17.8051C4.001 15.2978 1.94948 12.2044 0.247645 10.803C0.173506 10.7415 0.113172 10.6651 0.0705836 10.5787C0.0279949 10.4923 0.00410877 10.3979 0.000484914 10.3016C-0.00313894 10.2054 0.013581 10.1094 0.0495529 10.0201C0.0855248 9.93072 0.13994 9.84995 0.209245 9.78305C3.61004 6.53201 6.11805 10.9842 7.17645 13.1308L7.17669 13.1311Z" fill="var(--fill-0, #008F05)"/>
</g>
</svg>
