<svg preserveAspectRatio="none" width="100%" height="100%" overflow="visible" style="display: block;" viewBox="0 0 19 30" fill="none" xmlns="http://www.w3.org/2000/svg">
<g id="Frame">
<path d="M18.75 30H0V0H18.75V30Z" stroke="var(--stroke-0, #E5E7EB)"/>
<path id="Vector" d="M9.375 0C10.4121 0 11.25 0.837891 11.25 1.875V3.9668C11.3438 3.97852 11.4316 3.99023 11.5254 4.00781C11.5488 4.01367 11.5664 4.01367 11.5898 4.01953L14.4023 4.53516C15.4219 4.72266 16.0957 5.70117 15.9082 6.71484C15.7207 7.72852 14.7422 8.4082 13.7285 8.2207L10.9453 7.71094C9.11133 7.44141 7.49414 7.62305 6.35742 8.07422C5.2207 8.52539 4.76367 9.14648 4.6582 9.7207C4.54102 10.3477 4.62891 10.6992 4.72852 10.916C4.83398 11.1445 5.05078 11.4023 5.47852 11.6895C6.43359 12.3164 7.89844 12.7266 9.79688 13.2305L9.9668 13.2773C11.6426 13.7227 13.6934 14.2617 15.2168 15.2578C16.0488 15.8027 16.834 16.541 17.3203 17.5723C17.8184 18.6211 17.9238 19.793 17.6953 21.041C17.291 23.2676 15.7559 24.7559 13.8516 25.5352C13.0488 25.8633 12.1758 26.0742 11.25 26.1797V28.125C11.25 29.1621 10.4121 30 9.375 30C8.33789 30 7.5 29.1621 7.5 28.125V26.0801C7.47656 26.0742 7.44727 26.0742 7.42383 26.0684H7.41211C5.98242 25.8457 3.63281 25.2305 2.05078 24.5273C1.10742 24.1055 0.679687 22.998 1.10156 22.0547C1.52344 21.1113 2.63086 20.6836 3.57422 21.1055C4.79883 21.6504 6.81445 22.1895 7.98047 22.3711C9.84961 22.6465 11.3906 22.4883 12.4336 22.0605C13.4238 21.6562 13.875 21.0703 14.0039 20.3672C14.1152 19.7461 14.0273 19.3887 13.9277 19.1719C13.8164 18.9375 13.5996 18.6797 13.166 18.3926C12.2051 17.7656 10.7344 17.3555 8.83008 16.8516L8.66602 16.8105C6.99609 16.3652 4.94531 15.8203 3.42188 14.8242C2.58984 14.2793 1.81055 13.5352 1.32422 12.5039C0.832031 11.4551 0.732422 10.2832 0.966797 9.03516C1.38867 6.79687 3.06445 5.34375 4.96875 4.58789C5.74805 4.27734 6.60352 4.06641 7.5 3.94336V1.875C7.5 0.837891 8.33789 0 9.375 0Z" fill="var(--fill-0, white)"/>
</g>
</svg>
