<svg preserveAspectRatio="none" width="100%" height="100%" overflow="visible" style="display: block;" viewBox="0 0 172 193" fill="none" xmlns="http://www.w3.org/2000/svg">
<g id="06 registry">
<path id="Vector" d="M130.625 41.25V103.125C130.625 104.948 129.901 106.697 128.611 107.986C127.322 109.276 125.573 110 123.75 110C114.633 110 105.89 113.622 99.4432 120.068C92.9966 126.515 89.375 135.258 89.375 144.375C89.3462 146.685 89.5768 148.991 90.0625 151.25C90.3699 152.767 90.7834 154.26 91.3 155.719C91.7054 156.765 91.8484 157.895 91.7166 159.01C91.5848 160.124 91.1821 161.189 90.5438 162.112C89.912 163.023 89.0694 163.768 88.0878 164.282C87.1062 164.797 86.0146 165.067 84.9063 165.069H6.875C5.05164 165.069 3.30295 164.344 2.01364 163.055C0.72433 161.766 0 160.017 0 158.194V6.875C0 5.05164 0.72433 3.30295 2.01364 2.01364C3.30295 0.724328 5.05164 0 6.875 0H89.375C91.1786 0.00759427 92.907 0.723634 94.1875 1.99375L128.563 36.3687C129.212 37.0055 129.729 37.7648 130.083 38.6027C130.437 39.4406 130.621 40.3404 130.625 41.25Z" fill="url(#paint0_linear_364_397)"/>
<path id="Vector_2" d="M90.5438 162.044C89.912 162.954 89.0694 163.699 88.0878 164.214C87.1062 164.728 86.0146 164.998 84.9063 165H6.875C5.05164 165 3.30295 164.276 2.01364 162.986C0.72433 161.697 0 159.948 0 158.125V6.875C0 5.05164 0.72433 3.30295 2.01364 2.01364C3.30295 0.724328 5.05164 0 6.875 0H13.75V115.637C13.7682 125.077 17.526 134.125 24.2007 140.799C30.8754 147.474 39.9231 151.232 49.3625 151.25H90.0625C90.3699 152.744 90.7835 154.215 91.3 155.65C91.7054 156.697 91.8484 157.826 91.7166 158.941C91.5848 160.055 91.1821 161.121 90.5438 162.044Z" fill="var(--fill-0, #83A9DE)"/>
<path id="Vector_3" d="M171.875 144.375C171.826 155.693 167.79 166.631 160.476 175.268C153.162 183.904 143.038 189.687 131.883 191.6C120.728 193.512 109.256 191.432 99.4825 185.725C89.7092 180.018 82.2599 171.049 78.4437 160.394C77.671 158.357 77.0505 156.266 76.5875 154.138C75.9508 150.922 75.6285 147.653 75.625 144.375C75.625 131.611 80.6953 119.371 89.7205 110.345C98.7457 101.32 110.986 96.25 123.75 96.25C136.514 96.25 148.754 101.32 157.78 110.345C166.805 119.371 171.875 131.611 171.875 144.375Z" fill="url(#paint1_linear_364_397)"/>
<path id="Vector_4" d="M130.625 185.625C120.682 185.61 110.987 182.515 102.874 176.765C94.7613 171.016 88.6285 162.895 85.3187 153.519C84.546 151.482 83.9255 149.391 83.4625 147.263C82.8258 144.047 82.5035 140.778 82.5 137.5C82.47 126.415 86.312 115.667 93.3625 107.113C87.8277 111.619 83.3647 117.301 80.2968 123.746C77.229 130.191 75.6332 137.237 75.625 144.375C75.6285 147.653 75.9508 150.922 76.5875 154.138C77.0505 156.266 77.671 158.357 78.4437 160.394C81.3076 168.411 86.2471 175.526 92.7583 181.011C99.2696 186.496 107.119 190.156 115.507 191.617C123.894 193.078 132.519 192.287 140.502 189.326C148.484 186.365 155.538 181.34 160.944 174.763C152.408 181.798 141.687 185.639 130.625 185.625Z" fill="var(--fill-0, #E5646E)"/>
<g id="Group">
<path id="Vector_5" d="M144.375 144.375C144.375 146.198 143.651 147.947 142.361 149.236C141.072 150.526 139.323 151.25 137.5 151.25H130.625V158.125C130.625 159.948 129.901 161.697 128.611 162.986C127.322 164.276 125.573 165 123.75 165C121.927 165 120.178 164.276 118.889 162.986C117.599 161.697 116.875 159.948 116.875 158.125V151.25H110C108.177 151.25 106.428 150.526 105.139 149.236C103.849 147.947 103.125 146.198 103.125 144.375C103.125 142.552 103.849 140.803 105.139 139.514C106.428 138.224 108.177 137.5 110 137.5H116.875V130.625C116.875 128.802 117.599 127.053 118.889 125.764C120.178 124.474 121.927 123.75 123.75 123.75C125.573 123.75 127.322 124.474 128.611 125.764C129.901 127.053 130.625 128.802 130.625 130.625V137.5H137.5C139.323 137.5 141.072 138.224 142.361 139.514C143.651 140.803 144.375 142.552 144.375 144.375ZM75.625 41.25H34.375C32.5516 41.25 30.803 40.5257 29.5136 39.2364C28.2243 37.947 27.5 36.1984 27.5 34.375C27.5 32.5516 28.2243 30.803 29.5136 29.5136C30.803 28.2243 32.5516 27.5 34.375 27.5H75.625C77.4484 27.5 79.197 28.2243 80.4864 29.5136C81.7757 30.803 82.5 32.5516 82.5 34.375C82.5 36.1984 81.7757 37.947 80.4864 39.2364C79.197 40.5257 77.4484 41.25 75.625 41.25ZM82.5 61.875C82.5 60.0516 81.7757 58.303 80.4864 57.0136C79.197 55.7243 77.4484 55 75.625 55H34.375C32.5516 55 30.803 55.7243 29.5136 57.0136C28.2243 58.303 27.5 60.0516 27.5 61.875C27.5 63.6984 28.2243 65.447 29.5136 66.7364C30.803 68.0257 32.5516 68.75 34.375 68.75H75.625C77.4484 68.75 79.197 68.0257 80.4864 66.7364C81.7757 65.447 82.5 63.6984 82.5 61.875ZM82.5 89.375C82.5 87.5516 81.7757 85.803 80.4864 84.5136C79.197 83.2243 77.4484 82.5 75.625 82.5H34.375C32.5516 82.5 30.803 83.2243 29.5136 84.5136C28.2243 85.803 27.5 87.5516 27.5 89.375C27.5 91.1984 28.2243 92.947 29.5136 94.2364C30.803 95.5257 32.5516 96.25 34.375 96.25H75.625C77.4484 96.25 79.197 95.5257 80.4864 94.2364C81.7757 92.947 82.5 91.1984 82.5 89.375ZM96.25 82.5C94.8903 82.5 93.561 82.9032 92.4305 83.6586C91.2999 84.4141 90.4187 85.4878 89.8983 86.744C89.378 88.0003 89.2418 89.3826 89.5071 90.7162C89.7724 92.0499 90.4271 93.2749 91.3886 94.2364C92.3501 95.1978 93.5751 95.8526 94.9087 96.1179C96.2424 96.3832 97.6247 96.247 98.8809 95.7267C100.137 95.2063 101.211 94.3251 101.966 93.1945C102.722 92.064 103.125 90.7347 103.125 89.375C103.125 87.5516 102.401 85.803 101.111 84.5136C99.8221 83.2243 98.0734 82.5 96.25 82.5ZM96.25 55C94.8903 55 93.561 55.4032 92.4305 56.1586C91.2999 56.9141 90.4187 57.9878 89.8983 59.244C89.378 60.5003 89.2418 61.8826 89.5071 63.2162C89.7724 64.5499 90.4271 65.7749 91.3886 66.7364C92.3501 67.6978 93.5751 68.3526 94.9087 68.6179C96.2424 68.8832 97.6247 68.747 98.8809 68.2267C100.137 67.7063 101.211 66.8251 101.966 65.6945C102.722 64.564 103.125 63.2347 103.125 61.875C103.125 60.0516 102.401 58.303 101.111 57.0136C99.8221 55.7243 98.0734 55 96.25 55Z" fill="var(--fill-0, white)"/>
</g>
</g>
<defs>
<linearGradient id="paint0_linear_364_397" x1="97.8312" y1="18.0125" x2="-19.8688" y2="164.106" gradientUnits="userSpaceOnUse">
<stop stop-color="#8AB2E9"/>
<stop offset="1" stop-color="#C4D3F1"/>
</linearGradient>
<linearGradient id="paint1_linear_364_397" x1="169.744" y1="94.8062" x2="95.15" y2="175.244" gradientUnits="userSpaceOnUse">
<stop stop-color="#E5646E"/>
<stop offset="1" stop-color="#FFC269"/>
</linearGradient>
</defs>
</svg>
