<svg preserveAspectRatio="none" width="100%" height="100%" overflow="visible" style="display: block;" viewBox="0 0 40 48" fill="none" xmlns="http://www.w3.org/2000/svg">
<g id="Group">
<path id="Vector" d="M38.4741 13.5005L27.8878 20.5057C25.6599 17.4376 20.924 17.0525 18.1855 19.7089C15.5997 22.2167 15.8589 26.4329 18.721 28.6438C21.8458 31.0574 26.6649 30.0083 28.3967 26.546L39.9988 31.8373C37.975 36.4496 33.6731 41.8007 24.1897 42.2057L24.6612 47.8883C16.7077 46.7593 9.43164 41.7661 6.88445 34.3134L1.96218 37.5359C0.451485 33.9007 -0.0938539 29.8988 0.527553 26.0245C1.12816 22.278 2.81726 18.9182 5.38525 16.051L0 13.595C2.52831 10.6964 5.53082 8.31664 9.20097 6.84759C12.9622 5.34202 17.1942 4.86424 21.1943 5.68256L20.7231 0C28.6386 1.12421 35.9163 6.08433 38.4741 13.5005Z" fill="var(--fill-0, #4B608E)"/>
</g>
</svg>
