<svg preserveAspectRatio="none" width="100%" height="100%" overflow="visible" style="display: block;" viewBox="0 0 36 36" fill="none" xmlns="http://www.w3.org/2000/svg">
<g id="Frame">
<g clip-path="url(#clip0_471_499)">
<path id="Vector" d="M33.5674 2.23757C33.5674 1.33544 33.0219 0.51724 32.1827 0.16758C31.3435 -0.182081 30.3855 0.0137291 29.7421 0.650111L26.6931 3.70614C23.3363 7.06288 18.7837 8.95104 14.0354 8.95104H13.4269H11.1891H4.47565C2.00705 8.95104 0 10.9581 0 13.4267V20.1402C0 22.6088 2.00705 24.6158 4.47565 24.6158V33.5671C4.47565 34.8049 5.47568 35.8049 6.71347 35.8049H11.1891C12.4269 35.8049 13.4269 34.8049 13.4269 33.5671V24.6158H14.0354C18.7837 24.6158 23.3363 26.504 26.6931 29.8607L29.7421 32.9098C30.3855 33.5531 31.3435 33.7419 32.1827 33.3923C33.0219 33.0426 33.5674 32.2314 33.5674 31.3223V21.0073C34.8681 20.3919 35.8052 18.7345 35.8052 16.7834C35.8052 14.8323 34.8681 13.1749 33.5674 12.5595V2.23757ZM29.0917 7.60135V16.7834V25.9655C24.9797 22.2241 19.6159 20.1402 14.0354 20.1402H13.4269V13.4267H14.0354C19.6159 13.4267 24.9797 11.3427 29.0917 7.60135Z" fill="var(--fill-0, white)"/>
</g>
</g>
<defs>
<clipPath id="clip0_471_499">
<path d="M0 0H35.8052V35.8052H0V0Z" fill="white"/>
</clipPath>
</defs>
</svg>
