<svg preserveAspectRatio="none" width="100%" height="100%" overflow="visible" style="display: block;" viewBox="0 0 41 36" fill="none" xmlns="http://www.w3.org/2000/svg">
<g id="Frame">
<g clip-path="url(#clip0_471_496)">
<path id="Vector" d="M28.5323 8.39184C28.5323 12.2101 23.4202 19.0145 21.1754 21.8188C20.6369 22.4901 19.6369 22.4901 19.1054 21.8188C16.8606 19.0145 11.7486 12.2101 11.7486 8.39184C11.7486 3.75535 15.5039 0 20.1404 0C24.7769 0 28.5323 3.75535 28.5323 8.39184ZM29.0917 14.0144C29.3365 13.5318 29.5603 13.0493 29.7631 12.5738C29.798 12.4899 29.833 12.3989 29.868 12.315L37.9801 9.07018C39.085 8.62961 40.2808 9.44082 40.2808 10.6297V29.5673C40.2808 30.2526 39.8612 30.868 39.2249 31.1267L29.0917 35.1758V14.0144ZM9.62265 9.6716C9.79048 10.6576 10.1262 11.6507 10.5178 12.5738C10.7206 13.0493 10.9444 13.5318 11.1891 14.0144V31.5953L2.30076 35.1548C1.19584 35.5954 0 34.7842 0 33.5953V14.6578C0 13.9724 0.419592 13.357 1.05597 13.0983L9.62964 9.6716H9.62265ZM22.9237 23.2174C23.8958 22.0006 25.4203 20.0215 26.8539 17.8327V35.2667L13.4269 31.4274V17.8327C14.8606 20.0215 16.3851 22.0006 17.3571 23.2174C18.7907 25.0077 21.4901 25.0077 22.9237 23.2174ZM20.1404 10.6297C20.8823 10.6297 21.5938 10.335 22.1184 9.81036C22.643 9.28577 22.9377 8.57427 22.9377 7.83239C22.9377 7.0905 22.643 6.379 22.1184 5.85441C21.5938 5.32982 20.8823 5.03511 20.1404 5.03511C19.3985 5.03511 18.687 5.32982 18.1624 5.85441C17.6379 6.379 17.3431 7.0905 17.3431 7.83239C17.3431 8.57427 17.6379 9.28577 18.1624 9.81036C18.687 10.335 19.3985 10.6297 20.1404 10.6297Z" fill="var(--fill-0, white)"/>
</g>
</g>
<defs>
<clipPath id="clip0_471_496">
<path d="M0 0H40.2808V35.8052H0V0Z" fill="white"/>
</clipPath>
</defs>
</svg>
