<svg preserveAspectRatio="none" width="100%" height="100%" overflow="visible" style="display: block;" viewBox="0 0 23 30" fill="none" xmlns="http://www.w3.org/2000/svg">
<g id="Frame">
<g clip-path="url(#clip0_471_547)">
<path id="Vector" d="M21.9497 6.94922C22.6821 6.2168 22.6821 5.02734 21.9497 4.29492C21.2173 3.5625 20.0278 3.5625 19.2954 4.29492L0.54541 23.0449C-0.187012 23.7773 -0.187012 24.9668 0.54541 25.6992C1.27783 26.4316 2.46729 26.4316 3.19971 25.6992L21.9497 6.94922ZM7.50049 7.5C7.50049 6.50544 7.1054 5.55161 6.40214 4.84835C5.69888 4.14509 4.74505 3.75 3.75049 3.75C2.75593 3.75 1.8021 4.14509 1.09884 4.84835C0.395577 5.55161 0.00048827 6.50544 0.00048827 7.5C0.00048827 8.49456 0.395577 9.44839 1.09884 10.1517C1.8021 10.8549 2.75593 11.25 3.75049 11.25C4.74505 11.25 5.69888 10.8549 6.40214 10.1517C7.1054 9.44839 7.50049 8.49456 7.50049 7.5ZM22.5005 22.5C22.5005 21.5054 22.1054 20.5516 21.4021 19.8484C20.6989 19.1451 19.7451 18.75 18.7505 18.75C17.7559 18.75 16.8021 19.1451 16.0988 19.8484C15.3956 20.5516 15.0005 21.5054 15.0005 22.5C15.0005 23.4946 15.3956 24.4484 16.0988 25.1517C16.8021 25.8549 17.7559 26.25 18.7505 26.25C19.7451 26.25 20.6989 25.8549 21.4021 25.1517C22.1054 24.4484 22.5005 23.4946 22.5005 22.5Z" fill="var(--fill-0, white)"/>
</g>
</g>
<defs>
<clipPath id="clip0_471_547">
<path d="M0 0H22.5V30H0V0Z" fill="white"/>
</clipPath>
</defs>
</svg>
