<svg preserveAspectRatio="none" width="100%" height="100%" overflow="visible" style="display: block;" viewBox="0 0 45 36" fill="none" xmlns="http://www.w3.org/2000/svg">
<g id="Frame">
<g clip-path="url(#clip0_471_505)">
<path id="Vector" d="M22.3795 2.2377C21.8131 2.2377 21.2536 2.3356 20.7221 2.52442L1.10619 9.60853C0.441834 9.8533 0.0012623 10.4827 0.0012623 11.189C0.0012623 11.8953 0.441834 12.5247 1.10619 12.7695L5.15525 14.231C4.00837 16.0353 3.358 18.1682 3.358 20.413V22.3781C3.358 24.3642 2.60273 26.4132 1.79852 28.0286C1.34396 28.9377 0.82646 29.8329 0.225045 30.6581C0.0012623 30.9588 -0.0616765 31.3504 0.0642011 31.7071C0.190079 32.0637 0.483793 32.3294 0.84744 32.4204L5.32309 33.5393C5.6168 33.6162 5.9315 33.5603 6.19025 33.3994C6.44899 33.2386 6.63082 32.9728 6.68676 32.6721C7.28818 29.679 6.98747 26.9936 6.53991 25.0705C6.31612 24.0775 6.01542 23.0635 5.59582 22.1334V20.413C5.59582 18.3011 6.30913 16.308 7.54693 14.7136C8.44905 13.6296 9.61691 12.7555 10.9876 12.217L21.9669 7.90219C22.5403 7.67841 23.1907 7.95814 23.4145 8.53158C23.6383 9.10502 23.3586 9.75539 22.7851 9.97917L11.8058 14.294C10.9386 14.6366 10.1764 15.1611 9.55398 15.8045L20.7151 19.8326C21.2466 20.0214 21.8061 20.1193 22.3725 20.1193C22.939 20.1193 23.4984 20.0214 24.0299 19.8326L43.6528 12.7695C44.3172 12.5317 44.7578 11.8953 44.7578 11.189C44.7578 10.4827 44.3172 9.8533 43.6528 9.60853L24.0369 2.52442C23.5054 2.3356 22.946 2.2377 22.3795 2.2377ZM8.95256 28.5321C8.95256 31.0007 14.9667 33.5672 22.3795 33.5672C29.7923 33.5672 35.8065 31.0007 35.8065 28.5321L34.7365 18.364L24.7922 21.9585C24.0159 22.2383 23.1977 22.3781 22.3795 22.3781C21.5613 22.3781 20.7361 22.2383 19.9669 21.9585L10.0225 18.364L8.95256 28.5321Z" fill="var(--fill-0, white)"/>
</g>
</g>
<defs>
<clipPath id="clip0_471_505">
<path d="M0 0H44.7565V35.8052H0V0Z" fill="white"/>
</clipPath>
</defs>
</svg>
